<svg width="65" height="64" viewBox="0 0 65 64" fill="none" xmlns="http://www.w3.org/2000/svg">
<path d="M41.79 24C41.6153 24.5604 41.3876 25.1028 41.11 25.62L44.27 28.78L40.03 33.02L36.87 29.86C36.3528 30.1376 35.8104 30.3653 35.25 30.54V35H29.25V30.54C28.6896 30.3653 28.1472 30.1376 27.63 29.86L24.47 33.02L20.23 28.78L23.39 25.62C23.1124 25.1028 22.8847 24.5604 22.71 24H18.25V18H22.71C22.8847 17.4396 23.1124 16.8972 23.39 16.38L20.23 13.22L24.47 8.98L27.63 12.14C28.1472 11.8624 28.6896 11.6347 29.25 11.46V7H35.25V11.46C35.8104 11.6347 36.3528 11.8624 36.87 12.14L40.03 8.98L44.27 13.22L41.11 16.38C41.3876 16.8972 41.6153 17.4396 41.79 18H46.25V24H41.79Z" fill="#ED1C24"/>
<path d="M32.25 26C35.0114 26 37.25 23.7614 37.25 21C37.25 18.2386 35.0114 16 32.25 16C29.4886 16 27.25 18.2386 27.25 21C27.25 23.7614 29.4886 26 32.25 26Z" fill="#FFCD00"/>
<path d="M32.25 16C31.9141 15.9996 31.5791 16.0331 31.25 16.1C32.3803 16.3295 33.3965 16.9427 34.1264 17.8357C34.8563 18.7288 35.255 19.8466 35.255 21C35.255 22.1534 34.8563 23.2713 34.1264 24.1643C33.3965 25.0573 32.3803 25.6705 31.25 25.9C31.9346 26.039 32.6407 26.033 33.3229 25.8824C34.005 25.7318 34.648 25.44 35.2104 25.0257C35.7729 24.6113 36.2423 24.0838 36.5883 23.477C36.9344 22.8701 37.1495 22.1975 37.2197 21.5025C37.2899 20.8075 37.2137 20.1054 36.9959 19.4417C36.7782 18.7779 36.4238 18.1671 35.9556 17.6487C35.4874 17.1303 34.9157 16.7157 34.2775 16.4317C33.6392 16.1478 32.9486 16.0007 32.25 16Z" fill="#EBBF00"/>
<path d="M55.25 34C56.5761 34 57.8479 33.4732 58.7855 32.5355C59.7232 31.5979 60.25 30.3261 60.25 29C60.25 27.6739 59.7232 26.4021 58.7855 25.4645C57.8479 24.5268 56.5761 24 55.25 24H54.25V34H55.25Z" fill="#57A4FF"/>
<path d="M9.25 24C7.92392 24 6.65215 24.5268 5.71447 25.4645C4.77678 26.4021 4.25 27.6739 4.25 29C4.25 30.3261 4.77678 31.5979 5.71447 32.5355C6.65215 33.4732 7.92392 34 9.25 34H10.25V24H9.25Z" fill="#57A4FF"/>
<path d="M60.53 45.4C60.3338 45.0592 60.0723 44.7603 59.7605 44.5206C59.4487 44.2808 59.0927 44.1048 58.7129 44.0026C58.3331 43.9005 57.9369 43.8742 57.5469 43.9252C57.1569 43.9762 56.7808 44.1036 56.44 44.3L45.77 50.46H45.765C45.6228 49.9655 45.3554 49.516 44.9885 49.1551C44.6217 48.7942 44.1678 48.5341 43.671 48.4L28.751 44.4C27.7667 44.1364 26.7315 44.1278 25.743 44.375L19.25 46V58L21.983 59.367C22.8162 59.7832 23.7347 59.9999 24.666 60H39.643C40.6959 60.0015 41.7306 59.7256 42.643 59.2L59.443 49.5C60.1307 49.1004 60.6315 48.4439 60.8354 47.6751C61.0392 46.9062 60.9294 46.0879 60.53 45.4Z" fill="#F8A691"/>
<path d="M11.25 43H19.25V61H11.25V43Z" fill="#006DF0"/>
<path d="M3.25 45H11.25V59H3.25V45Z" fill="#57A4FF"/>
<path d="M9.25 45H11.25V59H9.25V45Z" fill="#2488FF"/>
<path d="M15.25 59C15.5152 59 15.7696 58.8946 15.9571 58.7071C16.1446 58.5196 16.25 58.2652 16.25 58V57C16.25 56.7348 16.1446 56.4804 15.9571 56.2929C15.7696 56.1054 15.5152 56 15.25 56C14.9848 56 14.7304 56.1054 14.5429 56.2929C14.3554 56.4804 14.25 56.7348 14.25 57V58C14.25 58.2652 14.3554 58.5196 14.5429 58.7071C14.7304 58.8946 14.9848 59 15.25 59Z" fill="#F1F2F2"/>
<path d="M51.25 34V38C51.25 38.2652 51.1446 38.5196 50.9571 38.7071C50.7696 38.8946 50.5152 39 50.25 39H35.25V41H50.25C51.0449 40.9976 51.8066 40.6808 52.3687 40.1187C52.9308 39.5566 53.2476 38.7949 53.25 38V34H51.25Z" fill="#A7A9AC"/>
<path d="M32.25 2C26.6823 2.00609 21.3444 4.22054 17.4075 8.15748C13.4705 12.0944 11.2561 17.4323 11.25 23V25H13.25V23C13.25 17.9609 15.2518 13.1282 18.815 9.56497C22.3782 6.00178 27.2109 4 32.25 4C37.2891 4 42.1218 6.00178 45.685 9.56497C49.2482 13.1282 51.25 17.9609 51.25 23V25H53.25V23C53.2439 17.4323 51.0295 12.0944 47.0925 8.15748C43.1556 4.22054 37.8177 2.00609 32.25 2Z" fill="#58595B"/>
<path d="M45.765 50.46C45.747 50.401 45.734 50.34 45.713 50.282C45.692 50.344 45.669 50.405 45.644 50.464C45.3652 51.1305 44.8545 51.6735 44.2063 51.9927C43.5581 52.3118 42.8163 52.3854 42.118 52.2L36.801 50.776L32.042 49.5C31.8043 49.4358 31.5512 49.4651 31.3344 49.5816C31.1176 49.6982 30.9536 49.8933 30.876 50.127C30.8343 50.2519 30.8185 50.3841 30.8298 50.5154C30.841 50.6467 30.879 50.7742 30.9414 50.8903C31.0038 51.0064 31.0892 51.1084 31.1925 51.1902C31.2958 51.272 31.4147 51.3318 31.542 51.366L41.95 54.152C42.6382 54.3514 43.374 54.3087 44.0345 54.0309C44.6949 53.7532 45.2401 53.2573 45.579 52.626C45.9147 51.954 45.9812 51.1793 45.765 50.46Z" fill="#F9D3C9"/>
<path d="M32.25 42H34.25C34.7804 42 35.2891 41.7893 35.6642 41.4142C36.0393 41.0391 36.25 40.5304 36.25 40C36.25 39.4696 36.0393 38.9609 35.6642 38.5858C35.2891 38.2107 34.7804 38 34.25 38H32.25C31.7196 38 31.2109 38.2107 30.8358 38.5858C30.4607 38.9609 30.25 39.4696 30.25 40C30.25 40.5304 30.4607 41.0391 30.8358 41.4142C31.2109 41.7893 31.7196 42 32.25 42Z" fill="#58595B"/>
<path d="M54.25 24H50.25V34H52.25H54.25V24Z" fill="#006DF0"/>
<path d="M10.25 24H14.25V34H10.25V24Z" fill="#006DF0"/>
</svg>
