<svg width="64" height="67" viewBox="0 0 64 67" fill="none" xmlns="http://www.w3.org/2000/svg">
<path d="M62.0397 44.0342V49.1452C62.0397 53.0322 57.0318 55.5886 50.4428 56.8152C44.5421 57.9141 37.373 57.9456 31.399 56.9089C24.5536 55.7232 19.2773 53.1344 19.2773 49.1452V44.0342H62.0397Z" fill="#DEDFFB"/>
<path d="M31.6571 54.8834L31.399 56.9091C24.5536 55.7233 19.2773 53.1346 19.2773 49.1454V46.25L31.6571 54.8834Z" fill="#D0CEF2"/>
<path d="M62.0398 46.9305V49.1453C62.0398 53.0323 57.0318 55.5887 50.4428 56.8153L50.3125 54.8033L62.0398 46.9305Z" fill="#D0CEF2"/>
<path d="M63.4257 30.8518V46.6535H63.4181C63.1974 50.267 57.893 53.3652 50.3125 54.8031C47.4119 55.3533 44.1783 55.6609 40.7693 55.6609C37.528 55.6609 34.4452 55.3832 31.6571 54.8831C23.7725 53.4691 18.2397 50.2747 18.1154 46.547H18.1128V30.9583H29.0164V38.515C36.1793 36.7405 45.26 36.7168 52.5221 38.515V30.8518H63.4257Z" fill="#748BFD"/>
<path d="M31.6571 37.9539V54.8834C23.7725 53.4694 18.2397 50.275 18.1154 46.5473H18.1128V30.9586H29.0164V38.5153C29.8623 38.3058 30.7439 38.1175 31.6571 37.9539Z" fill="#8FABFE"/>
<path d="M63.4257 30.8518V46.6535H63.4181C63.1975 50.267 57.893 53.3652 50.3125 54.8031V38.0337C51.0732 38.1776 51.81 38.3387 52.5222 38.515V30.8518H63.4257Z" fill="#656FEA"/>
<g opacity="0.21">
<path d="M63.4257 30.8518V35.1501C61.1999 37.4714 56.5488 40.4736 50.6532 41.5069C47.5124 42.0572 44.2073 42.4156 40.5163 42.4156C37.0067 42.4156 30.5497 41.365 30.5497 41.365C24.1609 39.9026 20.3063 37.6878 18.1128 35.4518V30.9583H29.0164V38.515C36.1793 36.7405 45.26 36.7168 52.5221 38.515V30.8518H63.4257Z" fill="#111D33"/>
</g>
<path d="M63.4257 30.9584C63.4257 34.6725 58.0574 37.8745 50.3125 39.344C47.4119 39.8942 44.1783 40.2009 40.7693 40.2009C35.8331 40.2009 32.8543 39.5812 31.6563 39.4223C23.6813 37.9921 18.1128 34.7406 18.1128 30.9584C18.1128 29.69 18.7373 28.5737 19.618 27.6405C22.8857 24.1752 31.1239 21.7159 40.7693 21.7159C50.6191 21.7159 59.0004 24.28 62.1215 27.8611C62.6054 28.4165 62.9632 28.9958 63.1804 29.5938C63.3422 30.0393 63.4257 30.495 63.4257 30.9584Z" fill="#DEDFFB"/>
<path d="M33.6589 34.4937L31.6571 39.4224C23.6822 37.9922 18.1128 34.7407 18.1128 30.9585C18.1128 29.6901 18.7373 28.5738 19.618 27.6406L33.6589 34.4937Z" fill="#D0CEF2"/>
<path d="M63.4257 30.9584C63.4257 34.6724 58.0574 37.8745 50.3125 39.3439L48.3958 35.5447L62.1215 27.8611C62.6054 28.4165 62.9632 28.9957 63.1804 29.5937C63.3422 30.0392 63.4257 30.495 63.4257 30.9584Z" fill="#D0CEF2"/>
<path d="M40.7691 37.472C53.1461 37.472 63.1797 33.9449 63.1797 29.594C63.1797 25.2431 53.1461 21.7159 40.7691 21.7159C28.3921 21.7159 18.3586 25.2431 18.3586 29.594C18.3586 33.9449 28.3921 37.472 40.7691 37.472Z" fill="#6F93F1"/>
<path d="M62.0397 22.3182V27.4293C62.0397 31.3162 57.0318 33.8726 50.4428 35.0993C44.5421 36.1981 37.373 36.2297 31.399 35.193C24.5536 34.0072 19.2773 31.4185 19.2773 27.4293V22.3182H62.0397Z" fill="#DEDFFB"/>
<path d="M31.6571 33.1675L31.399 35.1932C24.5536 34.0074 19.2773 31.4186 19.2773 27.4295V24.5341L31.6571 33.1675Z" fill="#8B95AF"/>
<path d="M62.0398 25.2144V27.4291C62.0398 31.3161 57.0318 33.8725 50.4428 35.0991L50.3125 33.0871L62.0398 25.2144Z" fill="#D0CEF2"/>
<path d="M63.4257 9.13586V24.9375H63.4181C63.1974 28.551 57.893 31.6492 50.3125 33.0871C44.3744 34.2137 37.536 34.2215 31.6571 33.1672C23.7725 31.7531 18.2397 28.5587 18.1154 24.8311H18.1128V9.24234H29.0164V16.799C36.1943 15.0208 45.2724 15.004 52.5221 16.799V9.13586H63.4257Z" fill="#748BFD"/>
<path d="M31.6571 16.238V33.1675C23.7725 31.7535 18.2397 28.559 18.1154 24.8314H18.1128V9.24268H29.0164V16.7994C29.8623 16.5898 30.7439 16.4016 31.6571 16.238Z" fill="#8FABFE"/>
<path d="M63.4257 9.13586V24.9375H63.4181C63.1975 28.551 57.893 31.6492 50.3125 33.0871V16.3177C51.0732 16.4617 51.81 16.6227 52.5222 16.799V9.13586H63.4257Z" fill="#656FEA"/>
<g opacity="0.21">
<path d="M63.4257 9.13586V13.4342C61.1999 15.7554 56.5488 18.7577 50.6532 19.791C47.5124 20.3413 44.2073 20.6996 40.5163 20.6996C37.0067 20.6996 30.5497 19.649 30.5497 19.649C24.1609 18.1867 20.3063 15.9719 18.1128 13.7358V9.24234H29.0164V16.799C36.1943 15.0208 45.2724 15.004 52.5221 16.799V9.13586H63.4257Z" fill="#111D33"/>
</g>
<path d="M63.4257 9.24248C63.4257 12.9565 58.0574 16.1586 50.3125 17.628C47.4119 18.1783 44.1783 18.485 40.7693 18.485C35.8331 18.485 32.8543 17.8652 31.6563 17.7064C23.6813 16.2761 18.1128 13.0247 18.1128 9.24248C18.1128 8.77909 18.1963 8.32334 18.3581 7.87783C18.6043 7.19977 19.0311 6.5464 19.618 5.92456C22.8857 2.45927 31.1239 0 40.7693 0C50.6191 0 59.0004 2.56404 62.1215 6.14519C63.0803 7.24567 63.4257 8.30122 63.4257 9.24248Z" fill="#DEDFFB"/>
<path d="M33.6589 12.7777L31.6571 17.7065C23.6822 16.2763 18.1128 13.0248 18.1128 9.2426C18.1128 8.77921 18.1963 8.32346 18.3581 7.87795C18.6043 7.19989 19.0311 6.54652 19.618 5.92468L33.6589 12.7777Z" fill="#E9E7FC"/>
<path d="M63.4257 9.24244C63.4257 12.9565 58.0574 16.1585 50.3125 17.628L48.3958 13.8288L62.1215 6.14514C63.0803 7.24562 63.4257 8.30118 63.4257 9.24244Z" fill="#D0CEF2"/>
<path d="M40.7691 15.7566C53.1461 15.7566 63.1797 12.2295 63.1797 7.87853C63.1797 3.52761 53.1461 0.000488281 40.7691 0.000488281C28.3921 0.000488281 18.3586 3.52761 18.3586 7.87853C18.3586 12.2295 28.3921 15.7566 40.7691 15.7566Z" fill="#6F93F1"/>
<path d="M59.2116 7.84793C59.2116 10.8971 51.0074 13.3699 40.8859 13.3699C30.7644 13.3699 22.5592 10.8971 22.5592 7.84793C22.5592 4.79766 30.7644 2.32483 40.8859 2.32483C51.0074 2.32483 59.2116 4.79766 59.2116 7.84793Z" fill="#656FEA"/>
<g opacity="0.21">
<path d="M56.9554 43.31C56.9554 44.9692 55.4303 46.4107 53.8997 46.2264C52.8595 46.1067 52.0938 45.2459 52.0938 44.0793C52.0938 42.6765 53.1934 41.3874 54.5246 41.1768C55.8666 40.9644 56.9554 41.9188 56.9554 43.31Z" fill="#111D33"/>
</g>
<path d="M56.0005 44.7656C56.7132 43.798 56.6223 42.5211 55.7974 41.9134C54.9724 41.3057 53.7259 41.5975 53.0132 42.565C52.3004 43.5325 52.3914 44.8095 53.2163 45.4172C54.0412 46.0249 55.2878 45.7331 56.0005 44.7656Z" fill="#5EC363"/>
<path d="M55.4835 43.5432C55.4835 44.4896 54.8618 45.3853 54.0172 45.7506C53.1726 45.6534 52.5509 44.9545 52.5509 44.0073C52.5509 43.0592 53.1726 42.1643 54.0172 41.7998C54.8618 41.8978 55.4835 42.5959 55.4835 43.5432Z" fill="#78E75A"/>
<g opacity="0.21">
<path d="M61.7555 42.5778C62.3354 41.2956 61.9267 39.8587 60.8427 39.3684C59.7587 38.8782 58.4099 39.5203 57.83 40.8025C57.2501 42.0848 57.6587 43.5217 58.7427 44.0119C59.8267 44.5022 61.1756 43.8601 61.7555 42.5778Z" fill="#111D33"/>
</g>
<path d="M61.4199 42.4262C61.9006 41.3631 61.5618 40.1719 60.6632 39.7655C59.7645 39.359 58.6462 39.8913 58.1654 40.9544C57.6847 42.0175 58.0234 43.2087 58.9221 43.6152C59.8208 44.0216 60.9391 43.4893 61.4199 42.4262Z" fill="#5EC363"/>
<path d="M60.7099 41.576C60.7099 42.5224 60.1285 43.4014 59.3387 43.7439C58.549 43.624 57.9676 42.9082 57.9676 41.961C57.9676 41.0129 58.549 40.1348 59.3387 39.7931C60.1285 39.9139 60.7099 40.6288 60.7099 41.576Z" fill="#78E75A"/>
<g opacity="0.21">
<path d="M56.3422 24.2983C57.2197 23.1071 57.1074 21.5348 56.0914 20.7864C55.0755 20.038 53.5405 20.3969 52.6631 21.5881C51.7856 22.7792 51.8979 24.3516 52.9138 25.1C53.9298 25.8484 55.4647 25.4895 56.3422 24.2983Z" fill="#111D33"/>
</g>
<path d="M55.9962 24.0433C56.709 23.0758 56.618 21.7988 55.7931 21.1911C54.9682 20.5834 53.7216 20.8752 53.0089 21.8427C52.2962 22.8103 52.3871 24.0872 53.212 24.6949C54.037 25.3026 55.2835 25.0108 55.9962 24.0433Z" fill="#F3A250"/>
<path d="M55.4835 22.8122C55.4835 23.7586 54.8618 24.6543 54.0172 25.0197C53.1726 24.9225 52.5509 24.2236 52.5509 23.2763C52.5509 22.3282 53.1726 21.4334 54.0172 21.0688C54.8618 21.1669 55.4835 21.865 55.4835 22.8122Z" fill="#FFD475"/>
<g opacity="0.21">
<path d="M62.0397 20.6587C62.0397 22.0203 61.0424 23.2649 59.8132 23.4375C59.6156 23.4652 59.4236 23.4634 59.2408 23.4346C58.288 23.2899 57.5867 22.4265 57.5867 21.2838C57.5867 19.9002 58.6029 18.6749 59.8132 18.505C61.0424 18.3324 62.0397 19.2961 62.0397 20.6587Z" fill="#111D33"/>
</g>
<path d="M61.6589 20.7122C61.6589 21.8409 60.8322 22.8726 59.8132 23.0157C59.6494 23.0387 59.4903 23.0372 59.3387 23.0133C58.549 22.8933 57.9676 22.1776 57.9676 21.2304C57.9676 20.0835 58.81 19.0677 59.8132 18.9269C60.8322 18.7838 61.6589 19.5826 61.6589 20.7122Z" fill="#F3A250"/>
<path d="M60.7099 20.8453C60.7099 21.7917 60.1285 22.6706 59.3387 23.0132C58.549 22.8932 57.9676 22.1775 57.9676 21.2303C57.9676 20.2822 58.549 19.4041 59.3387 19.0624C60.1285 19.1832 60.7099 19.8981 60.7099 20.8453Z" fill="#FFD475"/>
<g opacity="0.37">
<path d="M35.9398 51.2015C35.7107 51.4306 23.8527 63.2886 24.2238 62.9175L21.0267 66.1147C20.7481 66.3932 20.3434 66.4681 19.997 66.3392C19.9956 66.3392 17.1698 65.1557 17.1698 65.1557L18.1496 64.6166L4.73593 51.2029C4.122 50.5876 4.55576 49.5385 5.42469 49.5385H12.7129L12.7115 34.416C12.7115 33.0066 13.8549 31.8647 15.2643 31.8647H23.9841L23.7207 30.9445L26.3622 32.049C27.3004 32.4259 27.9615 33.3434 27.9615 34.416C27.9615 34.6154 27.963 43.2977 27.9629 42.745V49.5385H32.8743L32.8937 48.47C32.8937 48.47 35.6419 49.6175 35.6668 49.6285C36.2392 49.8946 36.4457 50.6957 35.9398 51.2015Z" fill="#111D33"/>
</g>
<path d="M34.4633 50.5799C33.3164 51.7268 19.3456 65.6977 19.5501 65.4931C19.2716 65.7717 18.8669 65.8465 18.5205 65.7176C18.519 65.7176 15.6933 64.5341 15.6933 64.5341L16.6731 63.995L3.25943 50.5813C2.6455 49.966 3.07926 48.9169 3.94819 48.9169H11.2364L11.235 33.7944C11.235 32.385 12.3784 31.2431 13.7878 31.2431H22.5076L22.2442 30.3229L24.8857 31.4274C25.8239 31.8043 26.485 32.7218 26.485 33.7944C26.485 33.9938 26.4865 42.6761 26.4864 42.1234V48.9169H31.3978L31.4172 47.8484C31.4172 47.8484 34.1654 48.9959 34.1903 49.007C34.7627 49.2731 34.9692 50.0741 34.4633 50.5799Z" fill="#F3A250"/>
<path d="M26.485 34.5912V38.7585L22.3177 37.3518L22.4882 33.0585L26.485 34.5912Z" fill="#DD8536"/>
<path d="M26.4864 42.1236V46.2728L21.949 44.7429L22.1181 40.4495L26.4864 42.1236Z" fill="#DD8536"/>
<path d="M32.9736 52.0696L29.8083 55.2349L25.1061 54.4463L28.6317 51.536L32.9736 52.0696Z" fill="#DD8536"/>
<path d="M25.9029 59.1406L21.7952 58.6361L18.2682 61.5464L22.7473 62.2961L25.9029 59.1406Z" fill="#DD8536"/>
<path d="M31.7415 49.4435L17.0182 64.1668L3.25943 50.408C2.6455 49.7927 3.07926 48.7436 3.94819 48.7436H11.2364V33.6212C11.2364 32.2118 12.3784 31.0698 13.7878 31.0698H23.2088C23.5566 31.505 23.7645 32.0566 23.7645 32.658V47.7791H31.0527C31.9211 47.7791 32.3542 48.8308 31.7415 49.4435Z" fill="#FFB961"/>
<path d="M3.25945 50.408L17.0182 64.1668L16.8283 64.3566C16.4472 64.7377 15.8305 64.7377 15.4494 64.3566L0.537615 49.4434C-0.0763091 48.8295 0.357481 47.7804 1.22641 47.7804L8.5146 47.779V32.6566C8.5146 31.2472 9.65655 30.1052 11.066 30.1052H21.2118C22.0211 30.1052 22.7418 30.4822 23.2088 31.0698H13.7878C12.3784 31.0698 11.2364 32.2117 11.2364 33.6212V48.7436H3.94822C3.07928 48.7436 2.64553 49.7927 3.25945 50.408Z" fill="#FFD475"/>
</svg>
