<svg width="61" height="60" viewBox="0 0 61 60" fill="none" xmlns="http://www.w3.org/2000/svg">
<path d="M17.3636 10.481V19.8944L16.9576 26.3095C16.7561 29.4887 19.2803 32.178 22.4663 32.178H39.4223C42.6079 32.178 45.132 29.4887 44.931 26.3095L44.525 19.8944V10.481C44.525 4.69254 39.8325 0 34.044 0H27.8441C22.0561 0 17.3636 4.69254 17.3636 10.481Z" fill="#FFB123"/>
<path d="M44.9311 26.3095L44.5251 19.894V10.481C44.5251 4.69254 39.8325 0 34.0441 0H28.0314C33.8198 0 38.5123 4.69254 38.5123 10.481V19.8944L38.9184 26.3095C39.1193 29.4887 36.5952 32.178 33.4096 32.178H39.4219C42.6079 32.178 45.132 29.4887 44.9311 26.3095Z" fill="#FF901D"/>
<path d="M38.5636 35.852C37.3711 35.5714 36.5133 33.9523 36.5133 32.5291V26.1854H25.3754V32.5291C25.3754 33.9523 24.5171 35.5714 23.3246 35.852L14.4001 38.7089C12.4587 39.3301 11.9629 41.8474 13.5244 43.1579H48.3647C49.9257 41.8474 49.43 39.3301 47.4886 38.7089L38.5636 35.852Z" fill="#FFE7CF"/>
<path d="M30.4996 34.7378C30.4996 36.161 31.3575 37.7801 32.55 38.0603L48.417 43.114L51.9587 40.1399L38.5636 35.852C37.3711 35.5714 36.5133 33.9523 36.5133 32.5291V26.1854H30.4996V34.7378Z" fill="#EFD5BD"/>
<path d="M58.0098 57.4269L55.8611 44.8471C55.3447 41.8245 53.131 39.3709 50.177 38.5474L41.5582 36.0901C41.5862 36.2997 41.6017 36.5121 41.6017 36.7264C41.6017 40.6265 36.83 43.7883 30.9441 43.7883C25.0582 43.7883 20.2869 40.6265 20.2869 36.7264C20.2869 36.5121 20.302 36.2997 20.3304 36.0901L11.7116 38.5474C8.75719 39.3709 6.54344 41.8245 6.02709 44.8471L3.87834 57.4269C3.64855 58.7718 4.68446 60 6.04906 60H55.8396C57.2037 60 58.2396 58.7718 58.0098 57.4269Z" fill="#F9644B"/>
<path d="M58.0099 57.4269L55.8611 44.8471C55.3448 41.8245 53.131 39.3709 50.1771 38.5474L41.5583 36.0901C41.5862 36.2997 41.6018 36.5121 41.6018 36.7264C41.6018 38.0878 41.02 39.359 40.0125 40.437L44.905 41.9952C47.859 42.8188 49.3325 43.905 49.8489 46.9276L51.9976 59.5074C52.026 59.6741 52.0347 59.8389 52.026 60H55.8392C57.2038 60 58.2397 58.7718 58.0099 57.4269Z" fill="#DB3F2E"/>
<path d="M38.6006 4.74106C36.8043 3.19427 34.2793 1.84433 30.944 1.80725C27.6088 1.84433 25.0837 3.19427 23.2875 4.74106C20.9964 6.71356 19.7554 9.64325 19.7554 12.6668V20.0047C19.7554 23.0283 23.5553 31.0478 30.944 31.0478C38.3328 31.0478 42.1331 23.0283 42.1331 20.0047V12.6668C42.1331 9.64325 40.8917 6.71356 38.6006 4.74106Z" fill="#FFE7CF"/>
<path d="M38.6007 4.74106C36.8044 3.19427 34.2794 1.84433 30.9441 1.80725C29.8565 1.81915 28.8558 1.97159 27.938 2.22427C29.8354 2.74612 31.3776 3.69873 32.588 4.74106C34.8791 6.71356 36.1205 9.64325 36.1205 12.6668V20.0047C36.1205 22.5865 33.3488 28.8112 27.938 30.5745C28.8631 30.8757 29.8652 31.0478 30.9441 31.0478C38.3329 31.0478 42.1332 23.0283 42.1332 20.0047V12.6668C42.1332 9.64325 40.8918 6.71356 38.6007 4.74106Z" fill="#EFD5BD"/>
<path d="M37.1559 48.6612L30.944 54.1617L24.7322 48.6612V41.1951H37.1559V48.6612Z" fill="#395F80"/>
<path d="M18.9539 36.2969L17.6932 38.8485C17.3261 39.5919 17.6058 40.4928 18.3295 40.8975L22.2375 43.0819C22.7817 43.3863 23.1557 43.9242 23.2519 44.5408L23.9069 48.7554C23.9953 49.3226 24.3198 49.8261 24.8005 50.1406L30.9441 54.1616L23.3356 35.4547C23.2908 35.3434 23.18 35.2734 23.0605 35.2802L20.2659 35.4318C19.7042 35.462 19.2029 35.7929 18.9539 36.2969Z" fill="#BACED8"/>
<path d="M42.9348 36.2969L44.195 38.8485C44.5621 39.5919 44.2824 40.4928 43.5587 40.8975L39.6512 43.0819C39.1065 43.3863 38.7325 43.9242 38.6368 44.5408L37.9813 48.7554C37.8929 49.3226 37.5684 49.8261 37.0877 50.1406L30.9441 54.1616L38.5526 35.4547C38.5979 35.3434 38.7082 35.2734 38.8277 35.2802L41.6228 35.4318C42.184 35.462 42.6857 35.7929 42.9348 36.2969Z" fill="#BACED8"/>
<path d="M19.4166 20.5256H17.8538C16.5812 20.5256 15.5494 19.4938 15.5494 18.2212V14.6337C15.5494 13.3611 16.5812 12.3293 17.8538 12.3293H19.4166C19.6464 12.3293 19.8327 12.5157 19.8327 12.7455V20.1095C19.8327 20.3393 19.6464 20.5256 19.4166 20.5256Z" fill="#F9644B"/>
<path d="M42.4747 27.4054H32.6099C32.1096 27.4054 31.7045 27.0003 31.7045 26.4999C31.7045 26.0001 32.11 25.5945 32.6099 25.5945H42.4747C42.5301 25.5945 42.5764 25.551 42.5796 25.4956L42.9975 18.4067C43.0268 17.9077 43.4534 17.5246 43.9547 17.5561C44.4536 17.5854 44.8345 18.0139 44.8052 18.5133L44.3873 25.6023C44.3278 26.6135 43.4878 27.4054 42.4747 27.4054Z" fill="#BACED8"/>
<path d="M33.5794 27.9757L31.8065 28.0723C30.9651 28.1181 30.2455 27.4731 30.1997 26.6313C30.1535 25.7899 30.7985 25.0703 31.6403 25.0241L33.4132 24.9275C34.2546 24.8817 34.9742 25.5267 35.02 26.3685C35.0662 27.2099 34.4208 27.9295 33.5794 27.9757Z" fill="#8ABE50"/>
<path d="M42.472 20.5256H44.0344C45.3069 20.5256 46.3387 19.4938 46.3387 18.2212V14.6337C46.3387 13.3611 45.3069 12.3293 44.0344 12.3293H42.472C42.2422 12.3293 42.0559 12.5157 42.0559 12.7455V20.1095C42.0559 20.3393 42.2422 20.5256 42.472 20.5256Z" fill="#F9644B"/>
<path d="M44.5251 14.8567V10.481C44.5251 4.69254 39.8325 0 34.0441 0H27.8441C22.0562 0 17.3636 4.69254 17.3636 10.481V13.7732C17.3636 14.2213 17.6328 14.6315 18.0508 14.794C18.52 14.9767 19.0482 15.0673 19.6305 15.0449C24.4247 14.859 25.7444 10.8925 26.0918 9.17358C26.1422 8.92319 26.4654 8.85315 26.6141 9.06143C27.97 10.9575 32.6003 15.5759 42.0083 16.1838C42.1868 16.1952 42.6006 16.2044 43.1504 16.2122C43.9062 16.2222 44.5251 15.6125 44.5251 14.8567Z" fill="#FFB123"/>
<path d="M34.0441 0H28.0314C33.8198 0 38.5123 4.69254 38.5123 10.481V15.7448C39.5959 15.9512 40.7595 16.1028 42.0083 16.1838C42.1868 16.1952 42.6006 16.2044 43.1504 16.2122C43.9062 16.2222 44.5251 15.6125 44.5251 14.8567V10.481C44.5251 4.69254 39.8325 0 34.0441 0Z" fill="#FF901D"/>
</svg>
