<svg width="61" height="60" viewBox="0 0 61 60" fill="none" xmlns="http://www.w3.org/2000/svg">
<path d="M55.2944 44.2186H4.66943V19.8436C4.66943 17.7726 6.34838 16.0936 8.41943 16.0936H51.5444C53.6155 16.0936 55.2944 17.7726 55.2944 19.8436V44.2186Z" fill="#463C4B"/>
<path d="M51.5444 44.2186H4.66943V19.8436C4.66943 17.7726 6.34838 16.0936 8.41943 16.0936H47.7944C49.8655 16.0936 51.5444 17.7726 51.5444 19.8436V44.2186Z" fill="#555A6E"/>
<path d="M8.41943 48.9061H51.5444C53.6155 48.9061 55.2944 47.2272 55.2944 45.1561V44.2186H4.66943V45.1561C4.66943 47.2272 6.34838 48.9061 8.41943 48.9061Z" fill="#A5C3DC"/>
<path d="M47.7944 48.9061H8.41943C6.34838 48.9061 4.66943 47.2272 4.66943 45.1561V44.2186H51.5444V45.1561C51.5444 47.2272 49.8655 48.9061 47.7944 48.9061Z" fill="#D7E6F0"/>
<path d="M24.3569 48.9061H32.7944V52.6561H24.3569V48.9061Z" fill="#A5C3DC"/>
<path d="M24.3569 50.7811H29.9819V52.6561H24.3569V50.7811Z" fill="#D7E6F0"/>
<path d="M37.4819 55.4686H18.7319V54.5311C18.7319 53.4955 19.5713 52.6561 20.6069 52.6561H35.6069C36.6425 52.6561 37.4819 53.4955 37.4819 54.5311V55.4686Z" fill="#D7E6F0"/>
<path d="M37.4819 55.4686H31.8569V54.5311C31.8569 53.4955 32.6963 52.6561 33.7319 52.6561H35.6069C36.6425 52.6561 37.4819 53.4955 37.4819 54.5311V55.4686Z" fill="#A5C3DC"/>
<path d="M56.7006 5C56.4005 4.69977 55.9934 4.53125 55.569 4.53125H50.0578C49.8091 4.53125 49.5706 4.63004 49.3948 4.80582C49.0287 5.17191 49.0287 5.76547 49.3948 6.13156L51.1562 7.89289L43.1069 15.9421L36.9326 9.76789C36.2005 9.0357 35.0132 9.0357 34.281 9.76789L21.156 22.8929C20.4237 23.6251 20.4237 24.8123 21.156 25.5445C21.5221 25.9106 22.002 26.0938 22.4818 26.0938C22.9615 26.0938 23.4414 25.9106 23.8075 25.5445L35.6068 13.7452L41.781 19.9195C42.5132 20.6517 43.7005 20.6517 44.4326 19.9195L53.8076 10.5445L55.569 12.3057C55.9351 12.6718 56.5287 12.6718 56.8948 12.3057C57.0706 12.1299 57.1694 11.8914 57.1694 11.6428V6.13156C57.1694 5.70711 57.0008 5.3 56.7006 5Z" fill="#FF6E91"/>
<path d="M17.7944 53.5936C18.83 53.5936 19.6694 52.7542 19.6694 51.7186C19.6694 50.6831 18.83 49.8436 17.7944 49.8436C16.7589 49.8436 15.9194 50.6831 15.9194 51.7186C15.9194 52.7542 16.7589 53.5936 17.7944 53.5936Z" fill="#D7E6F0"/>
<path d="M17.7944 49.8436V53.5936C18.83 53.5936 19.6694 52.7542 19.6694 51.7186C19.6694 50.683 18.83 49.8436 17.7944 49.8436Z" fill="#A5C3DC"/>
<path d="M19.6694 38.5936H15.9194C8.67068 38.5936 2.79443 32.7174 2.79443 25.4686C2.79443 18.2199 8.67068 12.3436 15.9194 12.3436H19.6694C26.9182 12.3436 32.7944 18.2199 32.7944 25.4686C32.7944 32.7174 26.9182 38.5936 19.6694 38.5936Z" fill="#289BC3"/>
<path d="M15.9194 38.5936C23.1682 38.5936 29.0444 32.7174 29.0444 25.4686C29.0444 18.2199 23.1682 12.3436 15.9194 12.3436C8.6707 12.3436 2.79443 18.2199 2.79443 25.4686C2.79443 32.7174 8.6707 38.5936 15.9194 38.5936Z" fill="#00D2D2"/>
<path d="M15.9194 34.531C20.9245 34.531 24.9819 30.4736 24.9819 25.4686C24.9819 20.4635 20.9245 16.4061 15.9194 16.4061C10.9143 16.4061 6.85693 20.4635 6.85693 25.4686C6.85693 30.4736 10.9143 34.531 15.9194 34.531Z" fill="#D7E6F0"/>
<path d="M12.1694 23.5936C13.205 23.5936 14.0444 22.7542 14.0444 21.7186C14.0444 20.6831 13.205 19.8436 12.1694 19.8436C11.1339 19.8436 10.2944 20.6831 10.2944 21.7186C10.2944 22.7542 11.1339 23.5936 12.1694 23.5936Z" fill="white"/>
<path d="M15.9194 38.5936H19.6694V40.4686H15.9194V38.5936Z" fill="#D7E6F0"/>
<path d="M15.9194 38.5936V39.5311H16.8569C17.3747 39.5311 17.7944 39.9509 17.7944 40.4686H19.6694V38.5936H15.9194Z" fill="#A5C3DC"/>
<path d="M19.6694 51.7186H15.9194C15.4017 51.7186 14.9819 51.2989 14.9819 50.7811V41.4061C14.9819 40.8884 15.4017 40.4686 15.9194 40.4686H19.6694C20.1872 40.4686 20.6069 40.8884 20.6069 41.4061V50.7811C20.6069 51.2989 20.1872 51.7186 19.6694 51.7186Z" fill="#00D2D2"/>
<path d="M19.6694 51.7186H17.7944V40.4686H19.6694C20.1872 40.4686 20.6069 40.8884 20.6069 41.4061V50.7811C20.6069 51.2989 20.1872 51.7186 19.6694 51.7186Z" fill="#289BC3"/>
<path d="M45.9138 55.5936H47.7888C54.002 55.5936 59.0388 50.5568 59.0388 44.3436C59.0388 38.1305 54.002 33.0936 47.7888 33.0936H45.9138C39.7007 33.0936 34.6638 38.1305 34.6638 44.3436C34.6638 50.5569 39.7007 55.5936 45.9138 55.5936Z" fill="#E64178"/>
<path d="M45.9138 55.5936C52.127 55.5936 57.1638 50.5568 57.1638 44.3436C57.1638 38.1304 52.127 33.0936 45.9138 33.0936C39.7006 33.0936 34.6638 38.1304 34.6638 44.3436C34.6638 50.5568 39.7006 55.5936 45.9138 55.5936Z" fill="#FF6E91"/>
<path d="M45.9138 51.8436C50.056 51.8436 53.4138 48.4858 53.4138 44.3436C53.4138 40.2015 50.056 36.8436 45.9138 36.8436C41.7717 36.8436 38.4138 40.2015 38.4138 44.3436C38.4138 48.4858 41.7717 51.8436 45.9138 51.8436Z" fill="#D7E6F0"/>
<path d="M45.9138 48.0936C47.9849 48.0936 49.6638 46.4147 49.6638 44.3436C49.6638 42.2726 47.9849 40.5936 45.9138 40.5936C43.8428 40.5936 42.1638 42.2726 42.1638 44.3436C42.1638 46.4147 43.8428 48.0936 45.9138 48.0936Z" fill="#FF6E91"/>
<path d="M45.9138 42.4686H35.6069L34.2885 40.4911C33.9407 39.9695 33.3554 39.6561 32.7284 39.6561H27.7371C26.2923 39.6561 25.4305 41.2664 26.2319 42.4686V44.3436H33.7263H47.7888C47.7888 43.3082 46.9493 42.4686 45.9138 42.4686Z" fill="#00D2D2"/>
<path d="M33.7263 44.3436H26.2319V46.2186C25.4305 47.4209 26.2923 49.0311 27.7371 49.0311H32.7284C33.3554 49.0311 33.9407 48.7178 34.2885 48.1962L35.6069 46.2186H45.9138C46.9494 46.2186 47.7888 45.3791 47.7888 44.3436H33.7263Z" fill="#289BC3"/>
</svg>
