<svg width="61" height="60" viewBox="0 0 61 60" fill="none" xmlns="http://www.w3.org/2000/svg">
<g clip-path="url(#clip0_5960_654)">
<path d="M28.8256 37.9885V50.3774H30.5834L31.8484 43.3659L30.5834 37.9885H28.8256Z" fill="#00607F"/>
<path d="M30.5834 37.9885H32.3412V50.3774H30.5834V37.9885Z" fill="#00465F"/>
<path d="M25.3099 52.1096C25.3099 55.0174 27.6756 57.3831 30.5834 57.3831L33.5773 52.1096L30.5834 46.8362C27.6756 46.8362 25.3099 49.2018 25.3099 52.1096Z" fill="#00ED83"/>
<path d="M30.5834 46.8362V57.3831C33.4911 57.3831 35.8568 55.0174 35.8568 52.1096C35.8568 49.2018 33.4911 46.8362 30.5834 46.8362Z" fill="#00CB71"/>
<path d="M60.5834 31.0385V31.9045L50.8716 34.7286L40.0568 31.9045L36.6541 24.1651L40.0568 12.128C45.274 12.087 49.5103 16.3467 49.5303 21.5651H51.11C56.3424 21.5651 60.5834 25.8061 60.5834 31.0385Z" fill="#0053FF"/>
<path d="M21.1099 12.128L25.2724 23.235L21.1099 31.9045L12.9279 34.7286L0.583374 31.9045V31.0385C0.583374 25.8061 4.82439 21.5651 10.0568 21.5651H11.6365C11.6564 16.3467 15.8927 12.087 21.1099 12.128Z" fill="#0053FF"/>
<path d="M21.7568 53.8674H12.9678V50.3518H18.2412V37.9885H21.7568V53.8674Z" fill="#00607F"/>
<path d="M48.199 53.8674H39.4099V37.9885H42.9255V50.3518H48.199V53.8674Z" fill="#00465F"/>
<path d="M9.45215 57.3831C12.3646 57.3831 14.7256 55.0221 14.7256 52.1096C14.7256 49.1972 12.3646 46.8362 9.45215 46.8362C6.53971 46.8362 4.17871 49.1972 4.17871 52.1096C4.17871 55.0221 6.53971 57.3831 9.45215 57.3831Z" fill="#00ED83"/>
<path d="M51.7146 57.3831C54.627 57.3831 56.988 55.0221 56.988 52.1096C56.988 49.1972 54.627 46.8362 51.7146 46.8362C48.8022 46.8362 46.4412 49.1972 46.4412 52.1096C46.4412 55.0221 48.8022 57.3831 51.7146 57.3831Z" fill="#00CB71"/>
<path d="M30.5834 2.61707C25.3381 2.61707 21.0888 6.87917 21.1099 12.128V31.9046L25.2724 34.0973L30.5834 31.9046L35.3201 20.5111L30.5834 2.61707Z" fill="#28DBFF"/>
<path d="M40.0568 31.9046V22.0163V12.128C40.0779 6.87917 35.8287 2.61707 30.5834 2.61707V31.9046L36.654 34.7287L40.0568 31.9046Z" fill="#7DA8FF"/>
<path d="M0.583374 31.9045V39.3741H30.5834L33.9301 35.6393L30.5834 31.9045H0.583374Z" fill="#7DA8FF"/>
<path d="M30.5834 31.9045H60.5834V39.3741H30.5834V31.9045Z" fill="#28DBFF"/>
</g>
<defs>
<clipPath id="clip0_5960_654">
<rect width="60" height="60" fill="white" transform="translate(0.583374)"/>
</clipPath>
</defs>
</svg>
