<svg width="65" height="64" viewBox="0 0 65 64" fill="none" xmlns="http://www.w3.org/2000/svg">
<g clip-path="url(#clip0_5965_548)">
<path d="M41.8167 54.1202H55.2084C56.2439 54.1202 57.0834 53.2807 57.0834 52.2452C57.0834 51.2097 56.2439 50.3702 55.2084 50.3702H41.8167C40.7812 50.3702 39.9417 51.2097 39.9417 52.2452C39.9417 53.2807 40.7812 54.1202 41.8167 54.1202Z" fill="#CFDBFD"/>
<path d="M45.3417 17.0852C46.3772 17.0852 47.2167 16.2457 47.2167 15.2102V9.31348H55.2084C56.2439 9.31348 57.0834 8.47398 57.0834 7.43848C57.0834 6.40298 56.2439 5.56348 55.2084 5.56348H45.3417C44.3062 5.56348 43.4667 6.40298 43.4667 7.43848V15.2102C43.4667 16.2457 44.3062 17.0852 45.3417 17.0852Z" fill="#CFDBFD"/>
<path d="M53.3159 31.6055H62.7084C63.7439 31.6055 64.5834 30.766 64.5834 29.7305C64.5834 28.695 63.7439 27.8555 62.7084 27.8555H53.3159C52.2804 27.8555 51.4409 28.695 51.4409 29.7305C51.4409 30.766 52.2804 31.6055 53.3159 31.6055Z" fill="#CFDBFD"/>
<path d="M50.5557 40.4862H58.4446C59.4801 40.4862 60.3196 39.6467 60.3196 38.6112C60.3196 37.5757 59.4801 36.7362 58.4446 36.7362H50.5557C49.5202 36.7362 48.6807 37.5757 48.6807 38.6112C48.6807 39.6467 49.5202 40.4862 50.5557 40.4862Z" fill="#CFDBFD"/>
<path d="M58.9583 10.8463C60.8404 10.8463 62.3661 9.32056 62.3661 7.43851C62.3661 5.55646 60.8404 4.03076 58.9583 4.03076C57.0763 4.03076 55.5506 5.55646 55.5506 7.43851C55.5506 9.32056 57.0763 10.8463 58.9583 10.8463Z" fill="#FFE370"/>
<path d="M58.9583 55.653C60.8404 55.653 62.3661 54.1273 62.3661 52.2453C62.3661 50.3632 60.8404 48.8375 58.9583 48.8375C57.0763 48.8375 55.5506 50.3632 55.5506 52.2453C55.5506 54.1273 57.0763 55.653 58.9583 55.653Z" fill="#FFE370"/>
<path d="M53.3334 7.43848C53.3334 4.33685 55.8567 1.81348 58.9584 1.81348C62.06 1.81348 64.5834 4.33685 64.5834 7.43848C64.5834 10.5401 62.06 13.0635 58.9584 13.0635C55.8567 13.0635 53.3334 10.5402 53.3334 7.43848ZM57.0834 7.43848C57.0834 8.47235 57.9245 9.31348 58.9584 9.31348C59.9922 9.31348 60.8334 8.47235 60.8334 7.43848C60.8334 6.4046 59.9922 5.56348 58.9584 5.56348C57.9245 5.56348 57.0834 6.4046 57.0834 7.43848Z" fill="#FF9600"/>
<path d="M53.3334 52.2452C53.3334 49.1436 55.8567 46.6202 58.9584 46.6202C62.06 46.6202 64.5834 49.1436 64.5834 52.2452C64.5834 55.3469 62.06 57.8702 58.9584 57.8702C55.8567 57.8702 53.3334 55.3469 53.3334 52.2452ZM57.0834 52.2452C57.0834 53.2791 57.9245 54.1202 58.9584 54.1202C59.9922 54.1202 60.8334 53.2791 60.8334 52.2452C60.8334 51.2114 59.9922 50.3702 58.9584 50.3702C57.9245 50.3702 57.0834 51.2112 57.0834 52.2452Z" fill="#FF9600"/>
<path d="M23.3501 54.1202H9.95837C8.92287 54.1202 8.08337 53.2807 8.08337 52.2452C8.08337 51.2097 8.92287 50.3702 9.95837 50.3702H23.3501C24.3856 50.3702 25.2251 51.2097 25.2251 52.2452C25.2251 53.2807 24.3856 54.1202 23.3501 54.1202Z" fill="#E8F1FD"/>
<path d="M19.825 17.0852C18.7895 17.0852 17.95 16.2457 17.95 15.2102V9.31348H9.95837C8.92287 9.31348 8.08337 8.47398 8.08337 7.43848C8.08337 6.40298 8.92287 5.56348 9.95837 5.56348H19.825C20.8605 5.56348 21.7 6.40298 21.7 7.43848V15.2102C21.7 16.2457 20.8605 17.0852 19.825 17.0852Z" fill="#E8F1FD"/>
<path d="M11.8509 31.6055H2.45837C1.42287 31.6055 0.583374 30.766 0.583374 29.7305C0.583374 28.695 1.42287 27.8555 2.45837 27.8555H11.8509C12.8864 27.8555 13.7259 28.695 13.7259 29.7305C13.7259 30.766 12.8864 31.6055 11.8509 31.6055Z" fill="#E8F1FD"/>
<path d="M14.611 40.4862H6.72211C5.68661 40.4862 4.84711 39.6467 4.84711 38.6112C4.84711 37.5757 5.68661 36.7362 6.72211 36.7362H14.611C15.6465 36.7362 16.486 37.5757 16.486 38.6112C16.486 39.6467 15.6465 40.4862 14.611 40.4862Z" fill="#E8F1FD"/>
<path d="M6.20835 10.8463C8.0904 10.8463 9.6161 9.32056 9.6161 7.43851C9.6161 5.55646 8.0904 4.03076 6.20835 4.03076C4.3263 4.03076 2.8006 5.55646 2.8006 7.43851C2.8006 9.32056 4.3263 10.8463 6.20835 10.8463Z" fill="#FFEFB2"/>
<path d="M6.20835 55.653C8.0904 55.653 9.6161 54.1273 9.6161 52.2453C9.6161 50.3632 8.0904 48.8375 6.20835 48.8375C4.3263 48.8375 2.8006 50.3632 2.8006 52.2453C2.8006 54.1273 4.3263 55.653 6.20835 55.653Z" fill="#FFEFB2"/>
<path d="M6.20837 13.0635C3.10675 13.0635 0.583374 10.5401 0.583374 7.43848C0.583374 4.33685 3.10675 1.81348 6.20837 1.81348C9.31 1.81348 11.8334 4.33685 11.8334 7.43848C11.8334 10.5401 9.31 13.0635 6.20837 13.0635ZM6.20837 5.56348C5.1745 5.56348 4.33337 6.4046 4.33337 7.43848C4.33337 8.47235 5.1745 9.31348 6.20837 9.31348C7.24225 9.31348 8.08337 8.47235 8.08337 7.43848C8.08337 6.4046 7.24225 5.56348 6.20837 5.56348Z" fill="#FFCD00"/>
<path d="M6.20837 57.8702C3.10675 57.8702 0.583374 55.3469 0.583374 52.2452C0.583374 49.1436 3.10675 46.6202 6.20837 46.6202C9.31 46.6202 11.8334 49.1436 11.8334 52.2452C11.8334 55.3469 9.31 57.8702 6.20837 57.8702ZM6.20837 50.3702C5.1745 50.3702 4.33337 51.2114 4.33337 52.2452C4.33337 53.2791 5.1745 54.1202 6.20837 54.1202C7.24225 54.1202 8.08337 53.2791 8.08337 52.2452C8.08337 51.2114 7.24225 50.3702 6.20837 50.3702Z" fill="#FFCD00"/>
<path d="M52.6334 32.2802C50.4334 40.134 45.1684 51.3052 32.5834 60.5277C22.5059 53.1565 15.7821 43.7202 12.5834 32.4552C10.7434 25.974 10.6446 20.6452 10.7221 18.2802C23.6321 14.1665 29.9221 9.77271 32.5834 7.43896C35.2446 9.77271 41.5346 14.1677 54.4471 18.2802C54.5271 20.6152 54.4359 25.8427 52.6334 32.2802Z" fill="#89FF57"/>
<path d="M52.6334 32.2802C50.4334 40.134 45.1684 51.3052 32.5834 60.5277V7.43896C35.2446 9.77271 41.5346 14.1677 54.4471 18.2802C54.5271 20.6152 54.4359 25.8427 52.6334 32.2802Z" fill="#52CC7B"/>
<path d="M33.7429 59.407L32.5834 58.0078C23.4634 51.3365 17.3772 42.7953 14.4822 32.6003C12.8172 26.734 12.7284 21.9115 12.7984 19.7715C24.4822 16.0478 30.1747 12.0715 32.5834 9.95902L33.7429 8.8064V7.15465L32.5834 5.40527C31.9834 5.40527 31.4447 5.69277 31.0922 6.17777C30.8959 6.41527 26.3647 11.7078 10.4584 16.574C9.7459 16.7915 9.22965 17.4115 9.14465 18.1528C9.1134 18.4215 8.41465 24.8415 10.8259 33.4528C12.2384 38.4953 14.4322 43.2578 17.3459 47.609C20.9797 53.0365 25.7447 57.8278 31.5109 61.849C31.8334 62.074 32.2084 62.1865 32.5834 62.1865L33.7429 60.6781V59.407Z" fill="#52CC7B"/>
<path d="M33.6652 19.5376L32.5833 17.999C28.1571 17.999 24.5558 21.6003 24.5558 26.0265V28.9303C24.5558 29.9653 25.3958 30.8053 26.4308 30.8053C27.4671 30.8053 28.3058 29.9653 28.3058 28.9303V26.0265C28.3058 23.6678 30.2246 21.749 32.5833 21.749L33.6652 20.5509V19.5376Z" fill="#404A80"/>
<path d="M54.3409 33.4528C52.9284 38.4953 50.7346 43.2578 47.8209 47.609C44.1871 53.0365 39.4221 57.8278 33.6559 61.849C33.3334 62.074 32.9584 62.1865 32.5834 62.1865V58.0078C43.9734 49.6603 48.7384 39.5503 50.7296 32.4415C52.3609 26.6153 52.4434 21.884 52.3709 19.7715C40.6846 16.049 34.9921 12.0715 32.5834 9.95902V5.40527C33.1834 5.40527 33.7221 5.69277 34.0746 6.17777C34.2709 6.41527 38.8021 11.7078 54.7084 16.574C55.4209 16.7915 55.9371 17.4115 56.0221 18.1528C56.0534 18.4215 56.7521 24.8415 54.3409 33.4528Z" fill="#3D997A"/>
<path d="M40.6109 26.0265V28.9303C40.6109 29.9653 39.7709 30.8053 38.7359 30.8053C37.6996 30.8053 36.8609 29.9653 36.8609 28.9303V26.0265C36.8609 23.6678 34.9421 21.749 32.5834 21.749V17.999C37.0096 17.999 40.6109 21.6003 40.6109 26.0265Z" fill="#283366"/>
<path d="M34.2611 30.8047L32.5834 27.0552H25.6834C23.7984 27.0552 22.2659 28.5877 22.2659 30.4727V41.2102C22.2659 43.0952 23.7984 44.6277 25.6834 44.6277H32.5834L34.2611 40.1527V30.8047Z" fill="#FFF3BF"/>
<path d="M42.9009 30.4727V41.2102C42.9009 43.0952 41.3684 44.6277 39.4834 44.6277H32.5834V27.0552H39.4834C41.3684 27.0552 42.9009 28.5877 42.9009 30.4727Z" fill="#FFB54C"/>
<path d="M34.4584 34.9302V36.7527C34.4584 37.7889 33.6184 38.6277 32.5834 38.6277C31.5484 38.6277 30.7084 37.7889 30.7084 36.7527V34.9302C30.7084 33.8939 31.5484 33.0552 32.5834 33.0552C33.6184 33.0552 34.4584 33.8938 34.4584 34.9302Z" fill="#404A80"/>
<path d="M34.4584 34.9302V36.7527C34.4584 37.7889 33.6184 38.6277 32.5834 38.6277V33.0552C33.6184 33.0552 34.4584 33.8938 34.4584 34.9302Z" fill="#283366"/>
</g>
<defs>
<clipPath id="clip0_5965_548">
<rect width="64" height="64" fill="white" transform="translate(0.583374)"/>
</clipPath>
</defs>
</svg>
