<?xml version="1.0" encoding="UTF-8"?> <svg xmlns="http://www.w3.org/2000/svg" width="260" height="76" viewBox="0 0 260 76" fill="none"><path d="M5 10C5 4.47716 9.47716 0 15 0H73C78.5228 0 83 4.47716 83 10V66C83 71.5228 78.5228 76 73 76H15C9.47716 76 5 71.5228 5 66V10Z" fill="#0054DF"></path><path d="M20.1973 60V27.52H28.1493V60H20.1973ZM20.1973 24.888V16.88H28.1493V24.888H20.1973ZM34.7467 60V27.52H59.7787C61.2347 27.52 62.5601 27.8934 63.7547 28.64C64.9495 29.3494 65.9015 30.3014 66.6107 31.496C67.3201 32.6906 67.6747 33.9974 67.6747 35.416V60H59.7227V35.808C59.7227 35.7334 59.6855 35.6586 59.6107 35.584C59.5735 35.5094 59.4987 35.472 59.3867 35.472H43.0347C42.9601 35.472 42.8855 35.5094 42.8107 35.584C42.7361 35.6586 42.6987 35.7334 42.6987 35.808V60H34.7467Z" fill="white"></path><path d="M118.55 75.8001V62H98.3298C96.8498 62 95.4898 61.64 94.2498 60.92C93.0498 60.16 92.0898 59.18 91.3698 57.98C90.6498 56.78 90.2898 55.44 90.2898 53.96V35.2401C90.2898 33.7601 90.6498 32.42 91.3698 31.22C92.0898 30.02 93.0498 29.06 94.2498 28.34C95.4898 27.58 96.8498 27.2 98.3298 27.2H125.69V75.8001H118.55ZM98.6298 54.8601H117.41C117.73 54.8601 117.99 54.7601 118.19 54.5601C118.43 54.3201 118.55 54.0401 118.55 53.7201V35.48C118.55 35.16 118.43 34.9001 118.19 34.7001C117.99 34.4601 117.73 34.34 117.41 34.34H98.6298C98.3098 34.34 98.0298 34.4601 97.7898 34.7001C97.5898 34.9001 97.4898 35.16 97.4898 35.48V53.7201C97.4898 54.0401 97.5898 54.3201 97.7898 54.5601C98.0298 54.7601 98.3098 54.8601 98.6298 54.8601ZM140.034 62C138.554 62 137.214 61.64 136.014 60.92C134.814 60.16 133.834 59.18 133.074 57.98C132.354 56.78 131.994 55.44 131.994 53.96V35.2401C131.994 33.7601 132.354 32.42 133.074 31.22C133.834 30.02 134.814 29.06 136.014 28.34C137.214 27.58 138.554 27.2 140.034 27.2H159.294C160.814 27.2 162.174 27.58 163.374 28.34C164.574 29.06 165.534 30.02 166.254 31.22C166.974 32.42 167.334 33.7601 167.334 35.2401V53.96C167.334 55.44 166.974 56.78 166.254 57.98C165.534 59.18 164.574 60.16 163.374 60.92C162.174 61.64 160.814 62 159.294 62H140.034ZM140.274 54.8601H159.054C159.374 54.8601 159.634 54.7601 159.834 54.5601C160.074 54.3201 160.194 54.0401 160.194 53.7201V35.48C160.194 35.16 160.074 34.9001 159.834 34.7001C159.634 34.4601 159.374 34.34 159.054 34.34H140.274C139.954 34.34 139.674 34.4601 139.434 34.7001C139.234 34.9001 139.134 35.16 139.134 35.48V53.7201C139.134 54.0401 139.234 54.3201 139.434 54.5601C139.674 54.7601 139.954 54.8601 140.274 54.8601ZM172.483 62V35.2401C172.483 33.7601 172.843 32.42 173.563 31.22C174.323 30.02 175.303 29.06 176.503 28.34C177.743 27.58 179.083 27.2 180.523 27.2H199.903V34.34H180.763C180.443 34.34 180.163 34.4601 179.923 34.7001C179.723 34.9001 179.623 35.16 179.623 35.48V62H172.483ZM210.892 62C209.412 62 208.052 61.64 206.812 60.92C205.612 60.16 204.652 59.18 203.932 57.98C203.212 56.78 202.852 55.44 202.852 53.96V35.2401C202.852 33.7601 203.212 32.42 203.932 31.22C204.652 30.02 205.612 29.06 206.812 28.34C208.052 27.58 209.412 27.2 210.892 27.2H231.112V15.8H238.252V62H210.892ZM211.192 54.8601H229.972C230.292 54.8601 230.552 54.7601 230.752 54.5601C230.992 54.3201 231.112 54.0401 231.112 53.7201V35.48C231.112 35.16 230.992 34.9001 230.752 34.7001C230.552 34.4601 230.292 34.34 229.972 34.34H211.192C210.872 34.34 210.592 34.4601 210.352 34.7001C210.152 34.9001 210.052 35.16 210.052 35.48V53.7201C210.052 54.0401 210.152 54.3201 210.352 54.5601C210.592 54.7601 210.872 54.8601 211.192 54.8601ZM244.732 62V54.8601H251.872V62H244.732Z" fill="white"></path></svg> 